# xmcd
#
# Track frame offsets: 
#        150
#        12635
#        26803
#        42069
#        56324
#        69828
#        86863
#        100830
#        113096
#        127241
#
# Disc length: 1925 seconds
#
# Revision: 2
# Processed by: cddbd v1.5.2PL0 Copyright (c) Steve Scherf et al.
# Submitted via: ExactAudioCopy v1.0b1
#
DISCID=8207830a
DTITLE=Daryle Singletary - Daryle Singletary
DYEAR=1995
DGENRE=Country
TTITLE0=To Much Fun
TTITLE1=I'm Living Up To Her Low Expectations
TTITLE2=There's A Cold Spell Movin' In
TTITLE3=Ordinary Heroes
TTITLE4=I Let Her Lie
TTITLE5=A Love That Never Died
TTITLE6=Workin' It Out
TTITLE7=My Heart's To Broke (To Pay Attention)
TTITLE8=Would These Arms Be In Your Way
TTITLE9=What Am I Doing There
EXTD=
EXTT0=
EXTT1=
EXTT2=
EXTT3=
EXTT4=
EXTT5=
EXTT6=
EXTT7=
EXTT8=
EXTT9=
PLAYORDER=
